<svg width="31" height="30" viewBox="0 0 31 30" fill="none" xmlns="http://www.w3.org/2000/svg">
<g id="map:art-gallery" clip-path="url(#clip0_243_1543)">
<path id="Vector" d="M12.8473 3.6001C5.2681 3.6001 0.720703 9.6799 0.720703 12.7201C0.720703 15.7603 2.2363 18.0403 5.2681 18.0403C8.2999 18.0403 9.8161 18.7999 9.8161 21.0799C9.8161 24.1195 12.0895 26.3995 15.1213 26.3995C24.9745 26.3995 29.5213 21.0799 29.5213 15.7603C29.5207 6.6403 21.9403 3.6001 12.8473 3.6001ZM10.9525 6.6403C11.2016 6.64061 11.4483 6.69 11.6783 6.78563C11.9084 6.88127 12.1174 7.02128 12.2933 7.19767C12.4693 7.37407 12.6088 7.58339 12.7038 7.81369C12.7989 8.04399 12.8476 8.29075 12.8473 8.5399C12.8473 9.5899 11.9989 10.4401 10.9525 10.4401C9.9061 10.4401 9.0577 9.5893 9.0577 8.5399C9.05739 8.29075 9.10615 8.04399 9.2012 7.81369C9.29625 7.58339 9.43573 7.37407 9.61168 7.19767C9.78763 7.02128 9.9966 6.88127 10.2267 6.78563C10.4567 6.69 10.7034 6.64061 10.9525 6.6403ZM17.0149 6.6403C17.264 6.64061 17.5107 6.69 17.7407 6.78563C17.9708 6.88127 18.1798 7.02128 18.3557 7.19767C18.5317 7.37407 18.6712 7.58339 18.7662 7.81369C18.8613 8.04399 18.91 8.29075 18.9097 8.5399C18.9101 8.78909 18.8614 9.03592 18.7664 9.26629C18.6714 9.49666 18.5319 9.70605 18.3559 9.88251C18.18 10.059 17.971 10.199 17.7409 10.2947C17.5108 10.3904 17.2641 10.4398 17.0149 10.4401C16.7658 10.4397 16.5191 10.3902 16.2891 10.2945C16.0591 10.1988 15.8502 10.0588 15.6743 9.8823C15.4984 9.70585 15.359 9.49648 15.264 9.26615C15.169 9.03582 15.1203 8.78904 15.1207 8.5399C15.1201 8.03683 15.3193 7.55411 15.6745 7.19788C16.0297 6.84166 16.5118 6.64109 17.0149 6.6403ZM23.0785 9.6799C23.3277 9.68013 23.5745 9.72948 23.8047 9.82512C24.0348 9.92075 24.2439 10.0608 24.4199 10.2373C24.5959 10.4137 24.7355 10.6232 24.8305 10.8536C24.9256 11.084 24.9743 11.3309 24.9739 11.5801C24.9743 11.8293 24.9256 12.0762 24.8305 12.3065C24.7354 12.5369 24.5959 12.7463 24.4199 12.9227C24.2439 13.0991 24.0348 13.2391 23.8046 13.3347C23.5745 13.4303 23.3277 13.4795 23.0785 13.4797C22.8294 13.4795 22.5827 13.4301 22.3527 13.3345C22.1226 13.2389 21.9136 13.0989 21.7377 12.9225C21.5618 12.746 21.4224 12.5367 21.3274 12.3064C21.2325 12.076 21.1838 11.8292 21.1843 11.5801C21.1838 11.3309 21.2325 11.0841 21.3274 10.8537C21.4224 10.6234 21.5618 10.414 21.7377 10.2375C21.9136 10.0611 22.1225 9.92098 22.3526 9.8253C22.5827 9.72962 22.8293 9.68021 23.0785 9.6799ZM5.6473 11.2003C5.89639 11.2005 6.14299 11.2498 6.37301 11.3454C6.60303 11.441 6.81197 11.581 6.98788 11.7573C7.16378 11.9337 7.30322 12.143 7.39821 12.3732C7.49321 12.6035 7.5419 12.8502 7.5415 13.0993C7.5415 14.1493 6.6931 14.9995 5.6473 14.9995C4.6015 14.9995 3.7525 14.1487 3.7525 13.0993C3.75203 12.5962 3.95137 12.1136 4.3067 11.7575C4.66202 11.4013 5.14424 11.2009 5.6473 11.2003ZM15.1207 18.7999C16.3765 18.7999 17.3941 19.8199 17.3941 21.0805C17.3941 22.3393 16.3765 23.3599 15.1207 23.3599C13.8649 23.3599 12.8473 22.3393 12.8473 21.0805C12.8468 20.7815 12.9051 20.4852 13.0191 20.2088C13.1331 19.9323 13.3004 19.681 13.5115 19.4692C13.7226 19.2574 13.9734 19.0893 14.2495 18.9744C14.5256 18.8596 14.8217 18.8003 15.1207 18.7999Z" fill="#DE3059"/>
</g>
<defs>
<clipPath id="clip0_243_1543">
<rect width="30" height="30" fill="white" transform="translate(0.121094)"/>
</clipPath>
</defs>
</svg>
