<svg width="30" height="34" viewBox="0 0 30 34" fill="none" xmlns="http://www.w3.org/2000/svg">
<path d="M4.99745 12.1516C4.99745 9.75095 5.73023 7.40419 7.10312 5.40811C8.476 3.41203 10.4273 1.85627 12.7104 0.937575C14.9934 0.0188796 17.5056 -0.221493 19.9292 0.246854C22.3529 0.715201 24.5791 1.87123 26.3265 3.56876C28.0738 5.26629 29.2638 7.42907 29.7459 9.78361C30.228 12.1382 29.9806 14.5787 29.0349 16.7966C28.0892 19.0146 26.4878 20.9102 24.4332 22.244C22.3785 23.5777 19.9628 24.2896 17.4917 24.2896C14.1792 24.286 11.0034 23.006 8.66105 20.7305C6.31872 18.4549 5.00117 15.3697 4.99745 12.1516ZM27.8713 22.6631C25.0422 25.3091 21.2574 26.7711 17.3305 26.7348C13.4036 26.6986 9.64805 25.167 6.87118 22.4693C4.09431 19.7716 2.51778 16.1232 2.48048 12.3082C2.44317 8.49331 3.94807 4.81643 6.67168 2.06798C6.7883 1.9536 6.88033 1.81783 6.94242 1.66857C7.00451 1.51931 7.03541 1.35954 7.03333 1.19856C7.03125 1.03759 6.99623 0.878624 6.9303 0.730923C6.86438 0.583223 6.76887 0.449738 6.64933 0.338241C6.5298 0.226743 6.38863 0.13946 6.23404 0.0814729C6.07945 0.0234861 5.91453 -0.00404582 5.74888 0.000479714C5.58323 0.00500524 5.42017 0.041498 5.26917 0.107833C5.11818 0.174169 4.98228 0.269021 4.86939 0.386869C2.56942 2.71593 0.99976 5.63315 0.344065 8.79721C-0.31163 11.9613 -0.026244 15.2413 1.16683 18.2535C2.35991 21.2658 4.41133 23.8857 7.08109 25.8066C9.75084 27.7276 12.9285 28.8702 16.2423 29.1008V31.5724H12.494C12.1626 31.5724 11.8448 31.7003 11.6105 31.9279C11.3762 32.1555 11.2446 32.4643 11.2446 32.7862C11.2446 33.1081 11.3762 33.4169 11.6105 33.6445C11.8448 33.8721 12.1626 34 12.494 34H22.4894C22.8208 34 23.1386 33.8721 23.3729 33.6445C23.6072 33.4169 23.7388 33.1081 23.7388 32.7862C23.7388 32.4643 23.6072 32.1555 23.3729 31.9279C23.1386 31.7003 22.8208 31.5724 22.4894 31.5724H18.7411V29.1023C22.8162 28.8289 26.6617 27.1689 29.6018 24.414C29.7231 24.3043 29.8207 24.1723 29.889 24.0256C29.9573 23.8789 29.9948 23.7205 29.9995 23.5596C30.0042 23.3987 29.9758 23.2385 29.9161 23.0883C29.8564 22.9381 29.7666 22.801 29.6518 22.6848C29.5371 22.5687 29.3997 22.4759 29.2476 22.4119C29.0956 22.3478 28.932 22.3138 28.7663 22.3118C28.6006 22.3098 28.4361 22.3398 28.2825 22.4001C28.1288 22.4604 27.9891 22.5498 27.8713 22.6631Z" fill="#A66F19"/>
</svg>
