<svg width="31" height="30" viewBox="0 0 31 30" fill="none" xmlns="http://www.w3.org/2000/svg">
<path d="M13.0417 0L16.1417 3.33333H29.45C29.8611 3.33333 30.2553 3.50893 30.546 3.82149C30.8367 4.13405 31 4.55797 31 5V28.3333C31 28.7754 30.8367 29.1993 30.546 29.5118C30.2553 29.8244 29.8611 30 29.45 30H1.55C1.13891 30 0.744666 29.8244 0.453984 29.5118C0.163303 29.1993 0 28.7754 0 28.3333V1.66667C0 1.22464 0.163303 0.800716 0.453984 0.488155C0.744666 0.175595 1.13891 0 1.55 0H13.0417ZM17.05 10H13.95V20H21.7V16.6667H17.05V10Z" fill="#E38B04"/>
</svg>
