<svg width="41" height="34" viewBox="0 0 41 34" fill="none" xmlns="http://www.w3.org/2000/svg">
<g id="ph:books-fill">
<path id="Vector" d="M37.0732 28.7708L31.8873 5.09978C31.8202 4.79023 31.6901 4.49645 31.5044 4.23533C31.3187 3.9742 31.0811 3.75087 30.8053 3.57816C30.5294 3.40546 30.2207 3.28679 29.8969 3.22896C29.5731 3.17113 29.2407 3.17529 28.9186 3.2412L21.6045 4.75027C20.9575 4.88626 20.3927 5.26199 20.0328 5.79573C19.6729 6.32946 19.547 6.97804 19.6826 7.60039L24.8686 31.2714C24.9841 31.8114 25.2898 32.2968 25.7343 32.646C26.1788 32.9951 26.7349 33.1867 27.3092 33.1885C27.4867 33.1882 27.6637 33.1701 27.8373 33.1345L35.1514 31.6254C35.7991 31.4891 36.3645 31.1126 36.7245 30.578C37.0844 30.0433 37.2098 29.3938 37.0732 28.7708ZM22.1279 7.10987V7.09637L29.4404 5.5963L29.9607 7.9769L22.6482 9.48747L22.1279 7.10987ZM23.6904 14.2172L23.167 11.8321L30.4826 10.323L31.0045 12.7081L23.6904 14.2172ZM34.6279 29.2793L27.3154 30.7794L26.7951 28.3988L34.1076 26.8882L34.6279 29.2658V29.2793ZM17.1279 4.38725H9.62793C8.96489 4.38725 8.329 4.64012 7.86016 5.09023C7.39132 5.54033 7.12793 6.15081 7.12793 6.78735V30.7884C7.12793 31.4249 7.39132 32.0354 7.86016 32.4855C8.329 32.9356 8.96489 33.1885 9.62793 33.1885H17.1279C17.791 33.1885 18.4269 32.9356 18.8957 32.4855C19.3645 32.0354 19.6279 31.4249 19.6279 30.7884V6.78735C19.6279 6.15081 19.3645 5.54033 18.8957 5.09023C18.4269 4.64012 17.791 4.38725 17.1279 4.38725ZM9.62793 6.78735H17.1279V9.18746H9.62793V6.78735ZM17.1279 30.7884H9.62793V28.3883H17.1279V30.7884Z" fill="#1976D2"/>
</g>
</svg>
