<svg width="27" height="30" viewBox="0 0 27 30" fill="none" xmlns="http://www.w3.org/2000/svg">
<path id="Vector" d="M24.5464 0H2.45552C1.80454 0 1.18021 0.243131 0.719896 0.675907C0.25958 1.10868 0.000976563 1.69565 0.000976562 2.30769V27.6923C0.000976563 28.3043 0.25958 28.8913 0.719896 29.3241C1.18021 29.7569 1.80454 30 2.45552 30H24.5464C25.1974 30 25.8217 29.7569 26.2821 29.3241C26.7424 28.8913 27.001 28.3043 27.001 27.6923V2.30769C27.001 1.69565 26.7424 1.10868 26.2821 0.675907C25.8217 0.243131 25.1974 0 24.5464 0ZM7.36461 25.3846C7.00052 25.3846 6.6446 25.2831 6.34186 25.0929C6.03912 24.9027 5.80317 24.6324 5.66383 24.3162C5.5245 23.9999 5.48804 23.6519 5.55908 23.3162C5.63011 22.9805 5.80544 22.6721 6.06289 22.43C6.32035 22.188 6.64837 22.0231 7.00547 21.9563C7.36257 21.8896 7.73272 21.9238 8.0691 22.0548C8.40548 22.1858 8.69299 22.4077 8.89527 22.6923C9.09755 22.9769 9.20552 23.3115 9.20552 23.6538C9.20552 24.1129 9.01157 24.5531 8.66633 24.8777C8.32109 25.2023 7.85285 25.3846 7.36461 25.3846ZM7.36461 19.6154C7.00052 19.6154 6.6446 19.5139 6.34186 19.3237C6.03912 19.1335 5.80317 18.8632 5.66383 18.547C5.5245 18.2307 5.48804 17.8827 5.55908 17.547C5.63011 17.2112 5.80544 16.9028 6.06289 16.6608C6.32035 16.4187 6.64837 16.2539 7.00547 16.1871C7.36257 16.1203 7.73272 16.1546 8.0691 16.2856C8.40548 16.4166 8.69299 16.6384 8.89527 16.9231C9.09755 17.2077 9.20552 17.5423 9.20552 17.8846C9.20552 18.3436 9.01157 18.7839 8.66633 19.1085C8.32109 19.433 7.85285 19.6154 7.36461 19.6154ZM13.501 25.3846C13.1369 25.3846 12.781 25.2831 12.4782 25.0929C12.1755 24.9027 11.9395 24.6324 11.8002 24.3162C11.6609 23.9999 11.6244 23.6519 11.6954 23.3162C11.7665 22.9805 11.9418 22.6721 12.1993 22.43C12.4567 22.188 12.7847 22.0231 13.1418 21.9563C13.4989 21.8896 13.8691 21.9238 14.2055 22.0548C14.5418 22.1858 14.8294 22.4077 15.0316 22.6923C15.2339 22.9769 15.3419 23.3115 15.3419 23.6538C15.3419 24.1129 15.1479 24.5531 14.8027 24.8777C14.4575 25.2023 13.9892 25.3846 13.501 25.3846ZM13.501 19.6154C13.1369 19.6154 12.781 19.5139 12.4782 19.3237C12.1755 19.1335 11.9395 18.8632 11.8002 18.547C11.6609 18.2307 11.6244 17.8827 11.6954 17.547C11.7665 17.2112 11.9418 16.9028 12.1993 16.6608C12.4567 16.4187 12.7847 16.2539 13.1418 16.1871C13.4989 16.1203 13.8691 16.1546 14.2055 16.2856C14.5418 16.4166 14.8294 16.6384 15.0316 16.9231C15.2339 17.2077 15.3419 17.5423 15.3419 17.8846C15.3419 18.3436 15.1479 18.7839 14.8027 19.1085C14.4575 19.433 13.9892 19.6154 13.501 19.6154ZM19.6373 25.3846C19.2732 25.3846 18.9173 25.2831 18.6146 25.0929C18.3118 24.9027 18.0759 24.6324 17.9366 24.3162C17.7972 23.9999 17.7608 23.6519 17.8318 23.3162C17.9028 22.9805 18.0782 22.6721 18.3356 22.43C18.5931 22.188 18.9211 22.0231 19.2782 21.9563C19.6353 21.8896 20.0054 21.9238 20.3418 22.0548C20.6782 22.1858 20.9657 22.4077 21.168 22.6923C21.3703 22.9769 21.4783 23.3115 21.4783 23.6538C21.4783 24.1129 21.2843 24.5531 20.9391 24.8777C20.5938 25.2023 20.1256 25.3846 19.6373 25.3846ZM19.6373 19.6154C19.2732 19.6154 18.9173 19.5139 18.6146 19.3237C18.3118 19.1335 18.0759 18.8632 17.9366 18.547C17.7972 18.2307 17.7608 17.8827 17.8318 17.547C17.9028 17.2112 18.0782 16.9028 18.3356 16.6608C18.5931 16.4187 18.9211 16.2539 19.2782 16.1871C19.6353 16.1203 20.0054 16.1546 20.3418 16.2856C20.6782 16.4166 20.9657 16.6384 21.168 16.9231C21.3703 17.2077 21.4783 17.5423 21.4783 17.8846C21.4783 18.3436 21.2843 18.7839 20.9391 19.1085C20.5938 19.433 20.1256 19.6154 19.6373 19.6154ZM22.0919 11.5385C22.0919 11.8445 21.9626 12.138 21.7324 12.3544C21.5023 12.5707 21.1901 12.6923 20.8646 12.6923H6.13734C5.81185 12.6923 5.49969 12.5707 5.26953 12.3544C5.03937 12.138 4.91007 11.8445 4.91007 11.5385V5.76923C4.91007 5.46321 5.03937 5.16973 5.26953 4.95334C5.49969 4.73695 5.81185 4.61538 6.13734 4.61538H20.8646C21.1901 4.61538 21.5023 4.73695 21.7324 4.95334C21.9626 5.16973 22.0919 5.46321 22.0919 5.76923V11.5385Z" fill="#6926BD"/>
</svg>
